<svg xmlns="http://www.w3.org/2000/svg" width="1700" height="1700" viewBox="0 0 1700 1700"><circle cx="231.4" cy="1651.7" r="0.85" fill="#eceef5" opacity="0.57"/><circle cx="766.8" cy="4.4" r="0.75" fill="#eceef5" opacity="0.52"/><circle cx="207.4" cy="1660.1" r="1.11" fill="#eceef5" opacity="0.7"/><circle cx="1037.3" cy="899.9" r="5.33" fill="#eceef5" opacity="0.07"/><circle cx="1037.3" cy="899.9" r="1.52" fill="#eceef5" opacity="0.91"/><circle cx="1473.4" cy="924.6" r="0.93" fill="#b9c6ff" opacity="0.62"/><circle cx="438.1" cy="119.6" r="0.64" fill="#eceef5" opacity="0.47"/><circle cx="1089.9" cy="576.6" r="1.14" fill="#eceef5" opacity="0.72"/><circle cx="1027.4" cy="639" r="0.94" fill="#b9c6ff" opacity="0.62"/><circle cx="1188.2" cy="745.4" r="5.25" fill="#eceef5" opacity="0.07"/><circle cx="1188.2" cy="745.4" r="1.5" fill="#eceef5" opacity="0.9"/><circle cx="1105.1" cy="681.3" r="4.59" fill="#eceef5" opacity="0.07"/><circle cx="1105.1" cy="681.3" r="1.31" fill="#eceef5" opacity="0.81"/><circle cx="937.4" cy="1584.3" r="0.83" fill="#b9c6ff" opacity="0.57"/><circle cx="1019.7" cy="1402.6" r="1.03" fill="#eceef5" opacity="0.67"/><circle cx="595.4" cy="184.7" r="0.71" fill="#eceef5" opacity="0.5"/><circle cx="100.9" cy="168.3" r="1.54" fill="#eceef5" opacity="0.92"/><circle cx="609.7" cy="1689" r="0.6" fill="#eceef5" opacity="0.45"/><circle cx="1628.7" cy="1538.7" r="0.83" fill="#b9c6ff" opacity="0.57"/><circle cx="1562" cy="433" r="5.02" fill="#eceef5" opacity="0.07"/><circle cx="1562" cy="433" r="1.43" fill="#eceef5" opacity="0.87"/><circle cx="341.5" cy="1137.8" r="0.67" fill="#eceef5" opacity="0.49"/><circle cx="694.8" cy="554.6" r="1.23" fill="#eceef5" opacity="0.76"/><circle cx="1477" cy="773.8" r="1.38" fill="#eceef5" opacity="0.84"/><circle cx="641.9" cy="637" r="5.04" fill="#eceef5" opacity="0.07"/><circle cx="641.9" cy="637" r="1.44" fill="#eceef5" opacity="0.87"/><circle cx="473.4" cy="348" r="0.9" fill="#eceef5" opacity="0.6"/><circle cx="45.1" cy="1484.5" r="0.87" fill="#eceef5" opacity="0.59"/><circle cx="1314.3" cy="669.9" r="0.92" fill="#eceef5" opacity="0.61"/><circle cx="945.7" cy="111.4" r="0.6" fill="#eceef5" opacity="0.45"/><circle cx="687" cy="1467.1" r="1.39" fill="#eceef5" opacity="0.84"/><circle cx="838.8" cy="808.7" r="0.67" fill="#b9c6ff" opacity="0.48"/><circle cx="1661.2" cy="479.4" r="1.45" fill="#eceef5" opacity="0.88"/><circle cx="187.8" cy="667.5" r="0.69" fill="#eceef5" opacity="0.5"/><circle cx="705.1" cy="355.5" r="0.74" fill="#b9c6ff" opacity="0.52"/><circle cx="65.3" cy="213.5" r="0.61" fill="#eceef5" opacity="0.45"/><circle cx="1434.6" cy="246.8" r="1.19" fill="#eceef5" opacity="0.74"/><circle cx="411.5" cy="1065.6" r="1.12" fill="#eceef5" opacity="0.71"/><circle cx="1314.1" cy="898.7" r="0.69" fill="#ffd3bd" opacity="0.5"/><circle cx="1321.3" cy="1192.8" r="0.66" fill="#eceef5" opacity="0.48"/><circle cx="818.4" cy="530.5" r="1.11" fill="#ffd3bd" opacity="0.7"/><circle cx="172.6" cy="925.1" r="4.66" fill="#eceef5" opacity="0.07"/><circle cx="172.6" cy="925.1" r="1.33" fill="#eceef5" opacity="0.82"/><circle cx="1205.8" cy="288.1" r="0.72" fill="#ffd3bd" opacity="0.51"/><circle cx="93.2" cy="582.1" r="1.15" fill="#eceef5" opacity="0.72"/><circle cx="1291.6" cy="1140.8" r="0.63" fill="#eceef5" opacity="0.47"/><circle cx="154.5" cy="1146.2" r="1.44" fill="#eceef5" opacity="0.87"/><circle cx="1516.4" cy="357" r="0.6" fill="#eceef5" opacity="0.45"/><circle cx="1340.6" cy="148.8" r="0.6" fill="#eceef5" opacity="0.45"/><circle cx="911.2" cy="815.1" r="0.98" fill="#eceef5" opacity="0.64"/><circle cx="450.6" cy="545.8" r="0.91" fill="#eceef5" opacity="0.61"/><circle cx="1531.6" cy="4.1" r="1.59" fill="#eceef5" opacity="0.95"/><circle cx="1274" cy="1029.5" r="0.74" fill="#eceef5" opacity="0.52"/><circle cx="114.9" cy="717.9" r="1.01" fill="#eceef5" opacity="0.65"/><circle cx="516.2" cy="344" r="0.72" fill="#b9c6ff" opacity="0.51"/><circle cx="589" cy="1285.1" r="4.29" fill="#ffd3bd" opacity="0.07"/><circle cx="589" cy="1285.1" r="1.23" fill="#ffd3bd" opacity="0.76"/><circle cx="361.2" cy="334.4" r="0.94" fill="#eceef5" opacity="0.62"/><circle cx="893.6" cy="1168.5" r="0.91" fill="#eceef5" opacity="0.6"/><circle cx="1494.2" cy="1019.5" r="0.63" fill="#eceef5" opacity="0.46"/><circle cx="156.2" cy="1391.9" r="0.83" fill="#eceef5" opacity="0.56"/><circle cx="1587.7" cy="199.2" r="5.13" fill="#eceef5" opacity="0.07"/><circle cx="1587.7" cy="199.2" r="1.46" fill="#eceef5" opacity="0.88"/><circle cx="1535.4" cy="1684.8" r="4.27" fill="#eceef5" opacity="0.07"/><circle cx="1535.4" cy="1684.8" r="1.22" fill="#eceef5" opacity="0.76"/><circle cx="1096.3" cy="195" r="0.67" fill="#ffd3bd" opacity="0.49"/><circle cx="725.6" cy="222.5" r="4.85" fill="#eceef5" opacity="0.07"/><circle cx="725.6" cy="222.5" r="1.39" fill="#eceef5" opacity="0.84"/><circle cx="1581.9" cy="1227.7" r="0.61" fill="#eceef5" opacity="0.46"/><circle cx="109.8" cy="429.8" r="0.68" fill="#ffd3bd" opacity="0.49"/><circle cx="950.3" cy="425.7" r="0.8" fill="#b9c6ff" opacity="0.55"/><circle cx="1416.7" cy="1126.4" r="1.01" fill="#eceef5" opacity="0.66"/><circle cx="103.4" cy="1628.8" r="0.93" fill="#eceef5" opacity="0.61"/><circle cx="62.1" cy="618.1" r="0.87" fill="#eceef5" opacity="0.59"/><circle cx="1507.2" cy="1193.6" r="0.61" fill="#eceef5" opacity="0.46"/><circle cx="111.8" cy="743.2" r="5.26" fill="#eceef5" opacity="0.07"/><circle cx="111.8" cy="743.2" r="1.5" fill="#eceef5" opacity="0.9"/><circle cx="132.7" cy="498.5" r="0.93" fill="#eceef5" opacity="0.61"/><circle cx="977.5" cy="1216.2" r="1.28" fill="#eceef5" opacity="0.79"/><circle cx="1555" cy="638.8" r="1.1" fill="#eceef5" opacity="0.7"/><circle cx="1132.6" cy="1658.5" r="0.72" fill="#eceef5" opacity="0.51"/><circle cx="870.8" cy="802.8" r="0.7" fill="#eceef5" opacity="0.5"/><circle cx="1025.3" cy="552.5" r="5.06" fill="#b9c6ff" opacity="0.07"/><circle cx="1025.3" cy="552.5" r="1.44" fill="#b9c6ff" opacity="0.87"/><circle cx="436.8" cy="188.9" r="1.25" fill="#eceef5" opacity="0.77"/><circle cx="198.4" cy="1440.6" r="1.18" fill="#eceef5" opacity="0.74"/><circle cx="951.4" cy="229.7" r="1.49" fill="#eceef5" opacity="0.89"/><circle cx="1566.5" cy="446.6" r="1.48" fill="#eceef5" opacity="0.89"/><circle cx="764.1" cy="219.8" r="0.61" fill="#eceef5" opacity="0.45"/><circle cx="930.5" cy="311.5" r="1.46" fill="#eceef5" opacity="0.88"/><circle cx="1392.6" cy="1428.9" r="0.87" fill="#eceef5" opacity="0.59"/><circle cx="68.6" cy="1680" r="0.61" fill="#b9c6ff" opacity="0.46"/><circle cx="979.9" cy="565.3" r="0.79" fill="#eceef5" opacity="0.55"/><circle cx="1172.5" cy="207.2" r="0.65" fill="#eceef5" opacity="0.47"/><circle cx="1383.8" cy="260.8" r="0.6" fill="#eceef5" opacity="0.45"/><circle cx="1445.1" cy="643.8" r="1.12" fill="#eceef5" opacity="0.71"/><circle cx="754" cy="332.5" r="1.16" fill="#eceef5" opacity="0.73"/><circle cx="1219.5" cy="449.6" r="0.77" fill="#eceef5" opacity="0.54"/><circle cx="1410" cy="1699.3" r="0.78" fill="#eceef5" opacity="0.54"/><circle cx="1410" cy="-0.7" r="0.78" fill="#eceef5" opacity="0.54"/><circle cx="1695.6" cy="767" r="0.63" fill="#eceef5" opacity="0.46"/><circle cx="671.8" cy="1111.8" r="0.61" fill="#eceef5" opacity="0.45"/><circle cx="656.2" cy="86.1" r="1.42" fill="#eceef5" opacity="0.86"/></svg>
